<svg width="682" height="462" viewBox="0 0 62 42" xmlns="http://www.w3.org/2000/svg"><g fill="#1D1C1B" fill-rule="evenodd"><path d="M18.05 8.06H21a19.87 19.87 0 0 1 11.52-6.24L32.9 0h-3.23a24.32 24.32 0 0 0-9.8 6.04 28.92 28.92 0 0 0-1.83 2.02m22.78 7.79c0 2.54-1.25 5.2-3.52 7.47a11.81 11.81 0 0 1-4.92 3l-.44 2.12c2.3-.6 4.57-1.95 6.5-3.87 5-5 5.75-11.78 1.76-15.77a8.13 8.13 0 0 0-3.8-2.14l-.45 2.2a6.95 6.95 0 0 1 2.65 1.65 7.4 7.4 0 0 1 2.22 5.34"/><path d="M36.72 16.82c.1-1.27-.3-2.44-1.15-3.28a3.62 3.62 0 0 0-.5-.4l-1.76 8.63a7.42 7.42 0 0 0 1.56-1.2 6.08 6.08 0 0 0 1.85-3.75M8.55 0L7.31 6.06A40.63 40.63 0 0 1 12.25 0h-3.7z"/><path d="M36.49 22.5c2.05-2.05 3.19-4.41 3.19-6.65 0-1.73-.66-3.29-1.9-4.53A5.76 5.76 0 0 0 35.73 10l-.4 1.94c.4.21.75.48 1.07.79a5.23 5.23 0 0 1 1.47 4.19c-.13 1.6-.9 3.2-2.18 4.47a8.59 8.59 0 0 1-2.66 1.8l-.37 1.82c1.35-.5 2.68-1.35 3.84-2.5M50.5 8.06h3.9A18.07 18.07 0 0 0 50.08 0h-6.26a14.23 14.23 0 0 1 3 2.3 15.6 15.6 0 0 1 3.7 5.76M3.44 32.13a22.89 22.89 0 0 1-.91-2.78l-1.1 5.33h3.22a22.74 22.74 0 0 1-1.21-2.55m6.85-19.46a23.84 23.84 0 0 0-2.2 9.77c0 2.5.45 4.87 1.33 7.07a17.67 17.67 0 0 0 3.18 5.17h6.05a13.96 13.96 0 0 1-2.34-1.89 16.06 16.06 0 0 1-4.57-13.12 21 21 0 0 1 2.18-7.41 27.13 27.13 0 0 1 5.13-7.03A25.77 25.77 0 0 1 26.54 0H20.7a32.88 32.88 0 0 0-3.8 3.26 31.67 31.67 0 0 0-6.59 9.4"/><path d="M20.32 19.99c0 .4.02.8.07 1.2h2.1a7.95 7.95 0 0 1-.2-1.83c0-1.3.28-2.6.85-3.89.39-.86.89-1.68 1.5-2.46h-2.08A12.74 12.74 0 0 0 20.32 20M28.25 13h-2.11a9.67 9.67 0 0 0-2.7 6.36c0 .63.07 1.24.23 1.82h2.04a5.26 5.26 0 0 1-.53-2.34c0-1.83.84-3.68 2.37-5.2.23-.23.46-.45.7-.64m11 12.37a15.62 15.62 0 0 1-7.56 4.3l-.47 2.3a19.07 19.07 0 0 0 9.62-5.24c3.06-3.05 5.04-6.77 5.58-10.45a13.78 13.78 0 0 0 .14-2.42c-.11-3-1.28-5.68-3.46-7.86A10.97 10.97 0 0 0 37.16 3l-.52 2.54A9.3 9.3 0 0 1 41 7.99c4.46 4.45 3.7 11.93-1.76 17.39M31.79 5.43l.49-2.4a18.82 18.82 0 0 0-9.66 5.03h3.13a14.9 14.9 0 0 1 6.04-2.63"/><path d="M43.9 5.2a12.74 12.74 0 0 1 3.3 5.5l.54-2.64h1.54A14.52 14.52 0 0 0 46 3.11 13.4 13.4 0 0 0 41.12 0h-3.35l-.39 1.86a13.4 13.4 0 0 1 1.6.39c1.9.59 3.56 1.58 4.93 2.94M26.8 29.72a9.92 9.92 0 0 1-4.86-2.7 10.25 10.25 0 0 1-.5-.56h-3.4a10.98 10.98 0 0 0 1.87 2.5c1.73 1.73 3.9 2.8 6.39 3.18l.5-2.42zm4.73-23.06a13.38 13.38 0 0 0-3.66 1.41h3.37l.29-1.4zM16.63 20.7v.49h2.6a11.04 11.04 0 0 1-.06-1.2c0-2.36.72-4.78 2.03-6.98h-2.45a15.76 15.76 0 0 0-2.12 7.69m10.86 5.76v-.01h-4.46a8.8 8.8 0 0 0 4.01 2.14l.45-2.13z"/><path d="M12.9 19.77a14.93 14.93 0 0 0 4.23 12.21 12.92 12.92 0 0 0 3.96 2.7h4.69l.3-1.43c-2.7-.4-5.08-1.6-6.97-3.48a12.12 12.12 0 0 1-2.35-3.32h-2.73l1.06-5.26h.4l-.01-.5c0-2.58.68-5.2 1.96-7.68h-.67l.92-4.51c-2.75 3.49-4.43 7.4-4.8 11.27"/><path d="M6.96 22.44a25 25 0 0 1 2.3-10.24 32.76 32.76 0 0 1 6.83-9.75A34.1 34.1 0 0 1 18.8 0h-4.93l-.59.58a38.28 38.28 0 0 0-6.67 8.86l-3.49 17a22.11 22.11 0 0 0 1.38 5.26 21.2 21.2 0 0 0 1.47 2.98h5.13a18.8 18.8 0 0 1-2.75-4.75 20.14 20.14 0 0 1-1.4-7.49m35.33 12.23l.79-3.82a24.76 24.76 0 0 1-5.64 3.83h4.85zM30.97 33.2l-.3 1.49h3.85a23.52 23.52 0 0 0 8.6-5.46l.36-.37.96-4.66a22.84 22.84 0 0 1-2.79 3.37 20.16 20.16 0 0 1-10.68 5.63M57.01 0H51.6a19.25 19.25 0 0 1 4 8.06h4.18A22.92 22.92 0 0 0 58.4 2.9a21.84 21.84 0 0 0-1.4-2.9m1.32 0a23.3 23.3 0 0 1 2.15 5.65L61.64 0h-3.31zm-8.04 14.32H47.7c0 .7-.05 1.41-.16 2.13-.3 2.05-1 4.1-2.07 6.05h2.57a20.74 20.74 0 0 0 2.24-8.18m5.7.91c-.25 2.45-.9 4.9-1.88 7.27h2.65l1.65-8.18h-2.34l-.07.91m-1.08-.9h-3.48a18.53 18.53 0 0 1-.13 1.5c-.27 2.24-.95 4.5-1.99 6.67h3.55a25.2 25.2 0 0 0 2.05-8.18m-26.56.13a6.33 6.33 0 0 0-2.03 4.4c0 .88.25 1.68.72 2.34h1.23l1.59-7.9a7.24 7.24 0 0 0-1.5 1.16M5.22 41.65c-.64 0-.93-.44-.94-1.03 0-.84.48-1.9 1.45-1.9.61 0 .96.39.97.99 0 .85-.52 1.94-1.48 1.94zm2.03-4.5l-.39 1.96h-.01c-.16-.54-.6-.75-1.13-.75-1.15 0-1.87 1.18-1.86 2.24.01.84.44 1.4 1.32 1.4.6 0 .96-.27 1.25-.72h.01l-.15.62h.4l.98-4.76h-.42zm2.87 3.08c-.17.87-.72 1.42-1.33 1.42-.37 0-.72-.17-.72-.62a1.6 1.6 0 0 1 .04-.35l.46-2.22h-.42l-.45 2.2a2.15 2.15 0 0 0-.05.41c0 .66.45.93 1.04.93.52 0 .97-.32 1.22-.73h.02l-.12.63h.39l.7-3.44h-.41l-.36 1.77zm-8.79-2.7h2.74l.08-.39H.96L0 41.9h3.25l.08-.39H.53l.39-1.88h2.54l.09-.39H.99zm32.82-.39h-.42l-.14.67h.42zm6.5.28h-.41l-.21 1.04h-.63l-.07.35h.62l-.45 2.28c-.03.15-.05.28-.05.36 0 .4.33.49.64.49.14 0 .29-.01.43-.03l.07-.36a3.01 3.01 0 0 1-.5.04c-.15 0-.21-.12-.21-.24a1.34 1.34 0 0 1 .04-.33l.45-2.2h.7l.06-.36h-.69l.22-1.04zm-2.86 1.3c.48 0 .85.22.82.75h.42c0-.8-.52-1.11-1.24-1.11-.55 0-1.27.28-1.27.94.01.57.47.77.93.96.46.17.93.3.94.75 0 .44-.5.64-.86.64-.49 0-.98-.2-.98-.87h-.42c-.03.86.64 1.22 1.3 1.22.65 0 1.38-.28 1.38-1.05 0-.64-.66-.83-1.13-1.02-.39-.15-.73-.31-.73-.63 0-.47.48-.59.84-.59m-1.5-.29h-.22c-.61-.01-.98.34-1.24.83l.16-.79h-.39l-.7 3.44h.42l.37-1.8c.13-.65.53-1.25 1.28-1.26h.24l.09-.42zM20.05 41.9h.41l.71-3.44h-.42zm-6.98-3.19c.5 0 .86.31.84.82h.42c.02-.8-.55-1.17-1.3-1.17-1.18 0-1.86 1.15-1.85 2.22.01.85.5 1.42 1.34 1.42.83 0 1.35-.43 1.6-1.21h-.42c-.18.5-.57.86-1.13.86-.65 0-.96-.46-.97-1.07 0-.9.47-1.87 1.47-1.87m7.95-1.57l-.13.67h.41l.14-.67zm-1.47.28h-.42l-.21 1.04h-.62l-.08.36h.62l-.45 2.27c-.03.16-.04.28-.04.36 0 .41.32.49.64.49l.42-.03.07-.36a3.17 3.17 0 0 1-.5.04c-.15 0-.21-.12-.21-.24 0-.11 0-.17.04-.33l.45-2.2h.7l.07-.36h-.7l.22-1.04zm13.22 4.48h.42l.7-3.44h-.42zm-2.2-4.37h2.59l.07-.39h-3.04l-.97 4.76h.45l.46-2.27h2.31l.07-.38h-2.3zm-3.47.83c-.52 0-.97.32-1.22.73h-.02l.12-.63h-.39l-.7 3.44h.41l.37-1.76c.17-.88.72-1.43 1.33-1.43.37 0 .72.17.72.62 0 .12-.02.24-.04.35l-.46 2.22h.42l.45-2.2c.04-.17.05-.3.05-.42 0-.65-.45-.92-1.04-.92m-3.88.35c-.92 0-1.42 1.01-1.41 1.82 0 .66.34 1.11 1.04 1.11.92 0 1.4-1.05 1.4-1.85-.01-.64-.36-1.08-1.03-1.08m1.44 1c.01 1.16-.61 2.29-1.89 2.29-.88 0-1.37-.57-1.38-1.44-.01-1.12.67-2.2 1.9-2.2.8 0 1.36.5 1.37 1.35m-8.3.53c-.5.04-1.35.07-1.35.79 0 .44.38.61.77.61.68 0 1.1-.4 1.23-1l.13-.58-.02-.01c-.13.16-.54.17-.75.2m1.12.04c-.14.77-.22.95-.21 1.16 0 .12.12.14.22.14.06 0 .1 0 .16-.02l-.05.34c-.1.02-.24.03-.35.03-.23 0-.36-.15-.37-.37l.01-.19v-.01c-.25.4-.72.63-1.2.63-.62 0-1.1-.28-1.1-.95-.01-.73.56-.96 1.17-1.07.44-.06.83-.03 1.1-.1.27-.06.4-.22.4-.67 0-.4-.4-.5-.73-.5-.53 0-.99.2-1.07.78h-.42c.1-.78.7-1.13 1.44-1.13.47 0 1.2.16 1.2.77 0 .33-.13.85-.2 1.16m.57-32.23H21a19.87 19.87 0 0 1 11.52-6.24L32.9 0h-3.23a24.32 24.32 0 0 0-9.8 6.04 28.92 28.92 0 0 0-1.83 2.02m22.78 7.79c0 2.54-1.25 5.2-3.52 7.47a11.81 11.81 0 0 1-4.92 3l-.44 2.12c2.3-.6 4.57-1.95 6.5-3.87 5-5 5.75-11.78 1.76-15.77a8.13 8.13 0 0 0-3.8-2.14l-.45 2.2a6.95 6.95 0 0 1 2.65 1.65 7.4 7.4 0 0 1 2.22 5.34"/><path d="M36.72 16.82c.1-1.27-.3-2.44-1.15-3.28a3.62 3.62 0 0 0-.5-.4l-1.76 8.63a7.42 7.42 0 0 0 1.56-1.2 6.08 6.08 0 0 0 1.85-3.75M8.55 0L7.31 6.06A40.63 40.63 0 0 1 12.25 0h-3.7z"/><path d="M36.49 22.5c2.05-2.05 3.19-4.41 3.19-6.65 0-1.73-.66-3.29-1.9-4.53A5.76 5.76 0 0 0 35.73 10l-.4 1.94c.4.21.75.48 1.07.79a5.23 5.23 0 0 1 1.47 4.19c-.13 1.6-.9 3.2-2.18 4.47a8.59 8.59 0 0 1-2.66 1.8l-.37 1.82c1.35-.5 2.68-1.35 3.84-2.5M50.5 8.06h3.9A18.07 18.07 0 0 0 50.08 0h-6.26a14.23 14.23 0 0 1 3 2.3 15.6 15.6 0 0 1 3.7 5.76M3.44 32.13a22.89 22.89 0 0 1-.91-2.78l-1.1 5.33h3.22a22.74 22.74 0 0 1-1.21-2.55m6.85-19.46a23.84 23.84 0 0 0-2.2 9.77c0 2.5.45 4.87 1.33 7.07a17.67 17.67 0 0 0 3.18 5.17h6.05a13.96 13.96 0 0 1-2.34-1.89 16.06 16.06 0 0 1-4.57-13.12 21 21 0 0 1 2.18-7.41 27.13 27.13 0 0 1 5.13-7.03A25.77 25.77 0 0 1 26.54 0H20.7a32.88 32.88 0 0 0-3.8 3.26 31.67 31.67 0 0 0-6.59 9.4"/><path d="M20.32 19.99c0 .4.02.8.07 1.2h2.1a7.95 7.95 0 0 1-.2-1.83c0-1.3.28-2.6.85-3.89.39-.86.89-1.68 1.5-2.46h-2.08A12.74 12.74 0 0 0 20.32 20M28.25 13h-2.11a9.67 9.67 0 0 0-2.7 6.36c0 .63.07 1.24.23 1.82h2.04a5.26 5.26 0 0 1-.53-2.34c0-1.83.84-3.68 2.37-5.2.23-.23.46-.45.7-.64m11 12.37a15.62 15.62 0 0 1-7.56 4.3l-.47 2.3a19.07 19.07 0 0 0 9.62-5.24c3.06-3.05 5.04-6.77 5.58-10.45a13.78 13.78 0 0 0 .14-2.42c-.11-3-1.28-5.68-3.46-7.86A10.97 10.97 0 0 0 37.16 3l-.52 2.54A9.3 9.3 0 0 1 41 7.99c4.46 4.45 3.7 11.93-1.76 17.39M31.79 5.43l.49-2.4a18.82 18.82 0 0 0-9.66 5.03h3.13a14.9 14.9 0 0 1 6.04-2.63"/><path d="M43.9 5.2a12.74 12.74 0 0 1 3.3 5.5l.54-2.64h1.54A14.52 14.52 0 0 0 46 3.11 13.4 13.4 0 0 0 41.12 0h-3.35l-.39 1.86a13.4 13.4 0 0 1 1.6.39c1.9.59 3.56 1.58 4.93 2.94M26.8 29.72a9.92 9.92 0 0 1-4.86-2.7 10.25 10.25 0 0 1-.5-.56h-3.4a10.98 10.98 0 0 0 1.87 2.5c1.73 1.73 3.9 2.8 6.39 3.18l.5-2.42zm4.73-23.06a13.38 13.38 0 0 0-3.66 1.41h3.37l.29-1.4zM16.63 20.7v.49h2.6a11.04 11.04 0 0 1-.06-1.2c0-2.36.72-4.78 2.03-6.98h-2.45a15.76 15.76 0 0 0-2.12 7.69m10.86 5.76v-.01h-4.46a8.8 8.8 0 0 0 4.01 2.14l.45-2.13z"/><path d="M12.9 19.77a14.93 14.93 0 0 0 4.23 12.21 12.92 12.92 0 0 0 3.96 2.7h4.69l.3-1.43c-2.7-.4-5.08-1.6-6.97-3.48a12.12 12.12 0 0 1-2.35-3.32h-2.73l1.06-5.26h.4l-.01-.5c0-2.58.68-5.2 1.96-7.68h-.67l.92-4.51c-2.75 3.49-4.43 7.4-4.8 11.27"/><path d="M6.96 22.44a25 25 0 0 1 2.3-10.24 32.76 32.76 0 0 1 6.83-9.75A34.1 34.1 0 0 1 18.8 0h-4.93l-.59.58a38.28 38.28 0 0 0-6.67 8.86l-3.49 17a22.11 22.11 0 0 0 1.38 5.26 21.2 21.2 0 0 0 1.47 2.98h5.13a18.8 18.8 0 0 1-2.75-4.75 20.14 20.14 0 0 1-1.4-7.49m35.33 12.23l.79-3.82a24.76 24.76 0 0 1-5.64 3.83h4.85zM30.97 33.2l-.3 1.49h3.85a23.52 23.52 0 0 0 8.6-5.46l.36-.37.96-4.66a22.84 22.84 0 0 1-2.79 3.37 20.16 20.16 0 0 1-10.68 5.63M57.01 0H51.6a19.25 19.25 0 0 1 4 8.06h4.18A22.92 22.92 0 0 0 58.4 2.9a21.84 21.84 0 0 0-1.4-2.9m1.32 0a23.3 23.3 0 0 1 2.15 5.65L61.64 0h-3.31zm-8.04 14.32H47.7c0 .7-.05 1.41-.16 2.13-.3 2.05-1 4.1-2.07 6.05h2.57a20.74 20.74 0 0 0 2.24-8.18m5.7.91c-.25 2.45-.9 4.9-1.88 7.27h2.65l1.65-8.18h-2.34l-.07.91m-1.08-.9h-3.48a18.53 18.53 0 0 1-.13 1.5c-.27 2.24-.95 4.5-1.99 6.67h3.55a25.2 25.2 0 0 0 2.05-8.18m-26.56.13a6.33 6.33 0 0 0-2.03 4.4c0 .88.25 1.68.72 2.34h1.23l1.59-7.9a7.24 7.24 0 0 0-1.5 1.16"/></g></svg>