<?xml version="1.0" encoding="utf-8"?>
<!-- Generator: Adobe Illustrator 23.0.1, SVG Export Plug-In . SVG Version: 6.00 Build 0)  -->
<svg version="1.1" id="Capa_1" xmlns="http://www.w3.org/2000/svg" xmlns:xlink="http://www.w3.org/1999/xlink" x="0px" y="0px"
	 viewBox="0 0 1242.1 1756.7" style="enable-background:new 0 0 1242.1 1756.7;" xml:space="preserve">
<path d="M471.7,657.1c108.8,0,217.2,0,326.4,0c0,108.8,0,217.4,0,326.4c-108.8,0-217.4,0-326.4,0
	C471.7,874.5,471.7,766.1,471.7,657.1z M786.6,926.8c0-87.6,0-172.6,0-258c-101.5,0-202.3,0-303.2,0c0,24.4,0,47.8,0,72.3
	c11.3,0,21.8,0,33.3,0c0,30.9,0,61,0,91.2c27.9,0,54.7,0,82.4,0c0-45.2,0-89.6,0-137.3C662.3,773,723.6,848.9,786.6,926.8z
	 M598.7,858.8c-27.9,0-54.5,0-82.4,0c0,25.2,0,49.9,0,75.9c-11.9,0-22.4,0-32.9,0c0,13.1,0,25.2,0,37.3c101.5,0,202.1,0,303.2,0
	c0-12.5,0-24.6,0-37.3c-31.9,0-63,0-94.1,0c-30.9,0-62,0-93.5,0C598.7,908.4,598.7,884,598.7,858.8z"/>
<path d="M953.9,1095.6c7.3,12.7,14.5,25,24.8,35.3c1.8,1.8,4.2,2.8,6.1,4.2c0.8,0.6,1.2,1.6,1.8,2.4c-1,0.6-2,1.8-3,1.8
	c-10.3,0-19-3.2-25-12.3c-4-6.3-8.5-12.3-11.9-18.8c-3.8-7.3-9.5-9.3-17.4-8.1c0,9.5-0.2,18.8,0.2,28.1c0.2,4.4,4,5.2,7.5,5.5
	c2.2,0.4,5.5,0,3.8,4.4c-11.9,0-23.6,0-35.5,0c-0.4-0.4-0.6-0.8-1-1.2c1.2-1,2.2-2.6,3.4-2.8c8.3-2,9.1-2.6,9.1-11.1
	c0.2-19.4,0.2-39,0-58.5c0-8.3-0.6-8.7-8.9-10.5c-1-0.2-1.8-1.4-2.6-2.2c1-0.6,1.8-1.8,2.8-1.8c14.1,0,28.1-0.2,42,0.6
	c11.3,0.6,18.6,7.5,20.6,16.8c2.2,10.3-2.4,19.6-12.1,25.4C957.2,1093.7,955.6,1094.7,953.9,1095.6z M929.1,1095.1
	c3.6,0,6.5,0.2,9.7,0c13.1-0.6,20.2-10.1,18.4-24.4c-1.6-12.9-12.7-17.6-24.2-15.5c-1.6,0.2-3.8,2.6-4,4
	C929.1,1070.9,929.1,1082.8,929.1,1095.1z"/>
<path d="M423.9,1095.6c3.4,5.4,6.3,10.5,9.7,15.7c3.6,5.2,6.9,10.5,11.1,15.1c3.8,4.4,8.3,7.7,12.1,12.1
	c-11.7,1.2-21.4-1.4-27.7-11.3c-3.8-5.9-7.7-11.9-11.5-18c-5.5-8.9-6.9-9.9-17.8-9.3c0,9.5-0.2,19,0.2,28.3c0.2,4.4,4,5,7.7,5.5
	c2.2,0.2,5.2,0.2,3.4,4.4c-11.1,0-22.6,0-33.9,0c-0.8,0-2-1.2-2-1.4c0.2-1,0.8-2,1.6-2.4c3-1.2,7.5-1.4,8.7-3.6
	c1.8-3.6,1.8-8.1,2-12.5c0.2-17.6,0-35.3,0-52.9c0-8.3-1.6-11.3-9.3-11.5c-0.8,0-1.6-1.4-2.4-2.2c1-0.6,1.8-1.8,2.8-1.8
	c14.1,0,28.1-0.2,42,0.6c11.3,0.6,18.6,7.3,20.6,16.8c2.2,10.7-2.2,19.8-12.3,25.8C427.3,1093.9,425.9,1094.7,423.9,1095.6z
	 M399.3,1095.1c3.8,0,6.7,0,9.7,0c7.7,0,13.9-3.4,17-10.5c3.4-7.9,3.4-16.3-2.2-23.4c-5.2-6.5-12.7-7.3-20.2-5.9
	c-1.6,0.4-4,2.8-4,4.4C399.1,1071.3,399.3,1083,399.3,1095.1z"/>
<path d="M528.2,1047.9c25.2-0.6,45.2,18.4,45.8,44c0.8,27.7-18.4,48-46.2,48.6c-25.4,0.6-45.2-18.6-46-44.4
	C481.2,1069.3,501,1048.7,528.2,1047.9z M560.1,1096.6c-0.6-13.3-4-24.2-10.5-32.5c-11.9-15.3-35.3-14.7-46.2,1.4
	c-11.1,16.3-8.7,45.8,5,60c15.9,16.8,41.4,11.3,48.4-11.1C558.3,1108.7,558.9,1102.6,560.1,1096.6z"/>
<path d="M214,1049.9c0.4,6.3,0.8,12.1,1.2,17.6c0,0.8-1,2-1.8,2.2c-0.6,0.2-1.6-1-2.4-1.4c-0.2,0,0-0.4-0.2-0.4
	c-2-10.3-8.7-14.1-18.6-13.1c-4,0.4-7.9-0.2-11.9,0.2c-1.4,0.2-3.8,2.2-3.8,3.2c-0.2,10.3-0.2,20.6-0.2,31.3c7.1,0,13.7,0.2,20.2,0
	c3.8-0.2,5.7-2.4,6.7-6.1c0.4-1.6,2-2.8,3-4c0.4,0.2,1,0.6,1.4,0.8c0,8.5,0,17,0,25.4c-0.4,0.2-0.6,0.6-1,0.8c-1-1-2.8-2-3.2-3.2
	c-1-5.5-4.6-7.7-9.9-7.5c-5.5,0.2-11.1,0-16.6,0c0,10.7-0.4,21,0.2,31.3c0.2,2,3.6,5.4,5.5,5.5c7.5,0.6,15.1,0.8,22.6-0.2
	c6.7-1,8.5-7.7,11.5-12.7c0.8-1.4,2.4-2.4,3.6-3.6c0.6,0.4,1,0.8,1.6,1.2c-1.6,6.9-3,13.9-4.6,21c-22.4,0-44.6,0-68.4,0
	c1.8-2,2.4-3.4,3.6-3.8c1.4-0.6,3.2-0.6,4.8-0.8c3.8-0.6,5.9-2.8,6.3-6.5c0.2-2,0.4-4,0.4-5.9c0-18,0-36.1,0-53.9
	c0-10.1,0-10.1-9.7-13.1c-0.8-0.2-1.4-1.4-2-2.2c0.8-0.6,1.4-1.6,2.2-1.8c1-0.4,2.4-0.2,3.4-0.2c16.6,0,33.3,0,49.9,0
	C210.1,1049.9,211.9,1049.9,214,1049.9z"/>
<path d="M346,1051.3c-1,1-2,2.6-3.2,2.8c-7.5,1.8-8.9,3-9.1,10.5c-0.4,11.3-0.4,22.8-0.8,34.1c-0.4,9.5-1.2,18.8-6.5,27
	c-7.9,12.3-23,17.2-39,13.5c-14.3-3.4-22.8-13.5-23.8-29.7c-0.8-13.1-0.4-26-0.4-39c0-2.4,0-5-0.2-7.3c-0.6-6.5-1.6-7.5-8.3-8.7
	c-1.2-0.2-2.4-1.6-3.6-2.4c1.2-0.6,2.6-1.8,3.8-1.8c9.5-0.2,19.2-0.2,28.7,0c1.2,0,2.4,1.4,3.6,2c-1.2,0.8-2.4,2-3.6,2.2
	c-4.6,0.4-7.9,2.2-7.9,7.1c0,16.3-0.6,32.7,1,49c1.8,17,14.9,25.4,31.1,21.8c11.1-2.6,16.8-10.9,17.4-21c1.4-16.4,0.8-33.3,0.6-49.7
	c0-5.2-5-5.9-8.9-6.7c-1.4-0.4-2.8-1.6-4-2.4c1.4-0.6,2.8-2,4.2-2c9.3-0.2,18.8,0,28.1,0C345.4,1050.3,345.8,1050.9,346,1051.3z"/>
<path d="M876.6,1138.3c-11.1,0-22,0-33.1,0c-0.4-0.4-0.6-0.8-1-1.2c1.2-1,2.2-2.8,3.6-3.2c5.9-2,6.3-2.4,4.2-8.3
	c-1.8-5.5-3.6-10.9-5.7-16.3c-0.6-1.4-2.8-2.8-4.2-3c-7.7-0.2-15.5-0.2-23.2,0c-1.4,0-3.4,1.4-3.8,2.8c-2.2,5.7-4.2,11.5-5.9,17.2
	c-1.4,5-0.4,6.3,5,7.3c0.8,0.2,1.8,0.2,2.4,0.6c0.8,0.6,1.4,1.8,2.2,2.6c-0.8,0.6-1.8,1.4-2.6,1.4c-9.1,0.2-18,0-28.1-1
	c1-1,1.8-3,2.8-3.2c7.7-1,10.5-6.7,13.1-12.9c9.1-22.6,18-45.2,27.2-67.8c0.4-1,0.6-2,1.2-2.8c1.2-1,2.4-2.2,3.8-2.4
	c0.8,0,2.2,1.6,2.6,2.8c6.9,18.4,13.7,37.1,20.4,55.7c2.4,6.3,4.8,12.7,7.1,19c1.8,4.4,4.6,7.5,9.7,8.1c1.4,0.2,2.4,2,3.6,3
	C877.2,1137.5,876.8,1137.9,876.6,1138.3z M830,1067.3c-0.4,0-0.8,0-1.2,0c-4,10.9-7.9,21.6-12.1,32.9c8.9,0,16.4,0,24.8,0
	C837.3,1088.9,833.8,1078.2,830,1067.3z"/>
<path d="M609.6,1112.3c3.4,6.1,5.5,10.9,8.3,15.1c5.2,7.3,14.7,10.1,23,6.9c8.5-3.2,12.3-15.7,6.3-23.4c-3.4-4.4-8.5-7.5-13.3-10.7
	c-4.4-3-9.3-5-13.5-8.1c-8.3-6.1-13.1-14.1-10.5-24.8c2.6-10.7,10.1-17.2,20.8-18.4c7.1-0.8,14.7,0.8,22,1.6c1.2,0.2,2.6,2.2,3,3.6
	c1,4.2,1.4,8.5,1.8,12.7c0,1.4-1.2,2.8-2.4,5.4c-2.4-5-3.8-8.3-5.4-11.5c-3.4-6.1-8.9-8.3-15.9-7.7c-6.1,0.6-10.3,3.6-12.3,9.3
	c-2.2,6.5-1,12.7,4.4,17c3.6,3.2,7.9,5.4,11.9,7.7c5,3.2,10.5,5.7,15.1,9.3c13.5,10.9,11.3,31.1-4,39.4c-11.9,6.5-24.2,5.4-36.3,0.6
	c-1.2-0.4-2.4-2.2-2.6-3.6c-1.2-5.2-2.2-10.3-2.8-15.7C607.4,1115.9,608.8,1114.3,609.6,1112.3z"/>
<path d="M1015.3,1112.3c3.2,5.9,5.2,10.5,7.9,14.5c5.2,7.7,14.1,10.3,22.8,7.7c8.3-2.6,12.9-14.9,7.5-22.6c-3-4.4-7.9-7.7-12.5-10.9
	c-4.8-3.4-10.5-5.7-15.3-9.1c-9.1-6.5-12.5-16.1-10.1-25.4c2.4-9.1,11.3-17,21.6-17.8c6.7-0.4,13.7,1,20.6,1.6
	c2.6,0.2,3.6,1.8,3.8,4.2c0.4,4.4,1.2,8.5,1.6,12.7c0,1.2-1.4,2.6-2.6,4.8c-2.2-4.8-3.6-7.9-5.4-11.1c-3.4-6.1-8.9-8.3-15.9-7.7
	c-6.3,0.6-10.5,3.8-12.5,9.7c-2,6.5-0.4,12.7,4.8,17c3.6,3,7.7,5,11.7,7.5c5,3,10.3,5.5,14.7,9.1c13.9,10.9,11.9,31.7-3.8,40
	c-11.9,6.3-24,5.2-35.9,0.4c-1.2-0.4-2.4-2.2-2.8-3.6c-1.2-5.4-2.2-10.7-2.8-16.1C1012.7,1115.5,1014.3,1114.1,1015.3,1112.3z"/>
<path d="M724,1054.6c-6.7,0.4-13.1,0.2-19.2,1c-6.7,1-6.9,7.5-9.1,12.3c-0.6,1.4-2,2.6-3.2,3.8c-0.6-0.4-1-0.6-1.6-1
	c0.6-7.9,1-16.1,1.6-24.2c1,0,1.8-0.2,2.6,0c3.6,1,6.9,3,10.5,3c16.4,0.4,32.9,0.4,49.5,0c4,0,7.9-1.8,12.5-2.8
	c0.4,7.5,1,15.5,1.4,23.6c-0.4,0.4-0.8,0.8-1.2,1c-1-1-2.6-1.8-3.2-3c-1.2-2.2-1.8-4.6-2.8-6.9c-1.6-4.4-5-6.3-9.5-6.5
	c-5.4,0-10.5,0-16.4,0c0,1.6,0,3.2,0,4.8c0,20.2,0,40.6,0,60.8c0,10.5,0.6,11.1,10.9,13.3c1.4,0.2,2.4,1.6,3.8,2.4
	c-0.2,0.4-0.6,1-0.8,1.4c-12.9,0-26,0-38.8,0c-0.4-0.4-0.6-0.8-1-1c1.2-1,2.2-2.6,3.4-2.8c8.5-0.8,10.5-2.4,10.5-13.1
	c0-20.2,0-40.6,0-60.8C724,1058.6,724,1057,724,1054.6z"/>
</svg>
