<?xml version="1.0" encoding="utf-8"?>
<!-- Generator: Adobe Illustrator 23.0.1, SVG Export Plug-In . SVG Version: 6.00 Build 0)  -->
<svg version="1.1" id="Capa_1" xmlns="http://www.w3.org/2000/svg" xmlns:xlink="http://www.w3.org/1999/xlink" x="0px" y="0px"
	 viewBox="0 0 595.3 841.9" style="enable-background:new 0 0 595.3 841.9;" xml:space="preserve">
<g>
	<path d="M185.3,515.7c0-80.8,0-161.6,0-242.4c74.9,0,149.7,0,224.6,0c0,80.8,0,161.6,0,242.4C335.1,515.7,260.3,515.7,185.3,515.7z
		 M232.4,488.5c0.1,0.9,0.1,2.1,0.3,3.3c0.6,4.3,2.2,8,5.5,10.9c4.1,3.5,8.9,4.4,14.1,3.8c5.7-0.7,10-3.5,12.6-8.7
		c2-4.1,2.4-8.4,1.8-12.8c-0.4-3.6-1.6-6.9-4-9.7c-3.9-4.6-9-6.1-14.9-5.6c-3.8,0.3-7.2,1.6-10,4.3
		C233.9,477.9,232.5,482.8,232.4,488.5z M219.3,485.2c-5.8,0-11.4,0-17.2,0c0-5,0-9.9,0-14.8c-1.7,0-3.4,0-5,0c0,11.9,0,23.8,0,35.7
		c1.7,0,3.4,0,5.1,0c0-5.4,0-10.8,0-16.2c5.7,0,11.4,0,17.1,0c0,5.4,0,10.8,0,16.2c1.7,0,3.4,0,5.1,0c0-11.9,0-23.8,0-35.7
		c-1.7,0-3.4,0-5.1,0C219.3,475.3,219.3,480.2,219.3,485.2z M399.2,506.2c0-0.2,0-0.2,0-0.2c-4.9-11.7-9.9-23.4-14.8-35
		c-0.1-0.3-0.6-0.5-0.9-0.5c-1.3-0.1-2.5,0-3.7,0c-0.7,0-1.1,0.2-1.4,0.9c-4.8,11.4-9.7,22.7-14.5,34.1c-0.1,0.2-0.2,0.5-0.3,0.8
		c1.6,0,3.1,0,4.6,0c0.6,0,0.9-0.2,1.1-0.7c1-2.5,2-5,3-7.6c0.2-0.6,0.5-0.8,1.1-0.8c5.3,0,10.6,0,15.8,0c0.7,0,1,0.2,1.2,0.8
		c1,2.5,2,5,3,7.6c0.1,0.3,0.6,0.7,0.9,0.7C395.9,506.2,397.6,506.2,399.2,506.2z M326.5,470.4c0,0.4,0,0.8,0,1.2
		c0,6.2,0,12.4,0,18.6c0,1.6-0.1,3.2-0.4,4.7c-0.7,4.4-3,6.8-7.1,7.3c-4.8,0.6-8.3-1.3-9.5-6.3c-0.3-1.4-0.5-2.9-0.6-4.4
		c-0.1-6.6,0-13.3,0-19.9c0-0.4,0-0.7,0-1.2c-1.8,0-3.4,0-5.1,0c0,0.3,0,0.6,0,0.7c0,6.7,0,13.4,0,20.1c0,1.6,0.1,3.3,0.4,4.9
		c1,4.9,3.6,8.5,8.6,9.9c3.2,0.9,6.4,0.9,9.6,0c3.9-1.1,6.5-3.6,7.9-7.3c0.9-2.5,1.2-5.1,1.3-7.7c0-6.6,0-13.1,0-19.7
		c0-0.3,0-0.6,0-1C329.8,470.4,328.2,470.4,326.5,470.4z M339.5,505.2c3.9,1.7,8.6,2,12.5,0.9c4.1-1.1,6.9-3.5,7.6-7.8
		c0.7-4.3-0.4-8-4.1-10.6c-1.1-0.8-2.4-1.5-3.6-2.2c-1.8-1-3.7-1.9-5.4-3c-1.6-1-2.3-2.6-2-4.5c0.3-1.8,1.4-2.8,3-3.4
		c2.4-0.8,4.7-0.6,7.1,0c0.9,0.2,1.9,0.6,2.8,0.9c0.2-1.6,0.5-3.2,0.7-4.7c-4.3-1.3-8.4-1.9-12.7-0.4c-3.6,1.2-6,3.7-6.4,7.6
		c-0.4,3.8,0.8,6.9,4.1,8.9c1.5,0.9,3.1,1.7,4.7,2.5c1.4,0.8,2.9,1.5,4.3,2.4c1.8,1.3,2.6,3.1,2.2,5.3c-0.4,2.2-1.9,3.5-3.9,4.3
		c-2.2,0.9-4.5,0.6-6.7,0c-1.3-0.3-2.5-0.7-3.8-1.1C339.9,502.2,339.7,503.7,339.5,505.2z M287,506.1c0-10.4,0-20.8,0-31.3
		c3.7,0,7.4,0,11.1,0c0-1.5,0-3,0-4.5c-9.1,0-18.2,0-27.3,0c0,1.5,0,2.9,0,4.5c3.7,0,7.3,0,11.1,0c0,10.5,0,20.9,0,31.3
		C283.6,506.1,285.2,506.1,287,506.1z M388.8,364.3c-1.8,1.2-3.3,2.3-4.8,3.4c-0.5,0.4-0.9,0.4-1.4,0c-1.5-1.1-3-2.1-4.8-3.4
		c0.6,2,1.1,3.7,1.7,5.4c0.2,0.7,0.2,1.1-0.5,1.6c-1.5,1-2.9,2.2-4.3,3.3c0,0.1,0,0.2,0,0.3c1.7,0,3.4,0.1,5.1,0
		c1,0,1.5,0.2,1.8,1.3c0.4,1.7,1.1,3.3,1.8,5.1c0.7-2,1.3-3.7,1.9-5.4c0.2-0.7,0.5-0.9,1.2-0.9c1.8,0,3.7,0,5.5,0
		c0-0.1,0-0.2,0.1-0.3c-1.3-1-2.5-2-3.9-3c-1-0.6-1.3-1.3-0.8-2.4C387.9,367.7,388.3,366.1,388.8,364.3z M310.6,381.2
		c0.7-2,1.3-3.8,1.9-5.6c0.2-0.6,0.4-0.8,1-0.7c1.2,0,2.4,0,3.6,0c0.7,0,1.3,0,2,0c0-0.1,0-0.2,0-0.3c-1.5-1.1-2.9-2.2-4.4-3.3
		c-0.6-0.4-0.6-0.7-0.4-1.4c0.6-1.8,1.1-3.5,1.7-5.5c-2,1.4-3.7,2.6-5.5,3.8c-1.8-1.3-3.5-2.5-5.5-3.8c0.6,2,1.1,3.7,1.7,5.4
		c0.2,0.7,0.2,1.2-0.5,1.6c-1.5,1-2.9,2.2-4.5,3.4c0.6,0,0.9,0.1,1.2,0.1c1.5,0,3,0.1,4.5,0c0.7,0,1,0.2,1.2,0.9
		C309.3,377.5,310,379.2,310.6,381.2z M355.5,409.7c0-0.1,0-0.2,0-0.4c-0.1-0.1-0.1-0.2-0.2-0.2c-1-0.8-2-1.5-3.1-2.3
		c-1.7-1.3-1.7-1.3-1.1-3.4c0.4-1.4,0.8-2.8,1.3-4.4c-1.2,0.8-2.2,1.5-3.2,2.2c-0.7,0.5-1.5,1.4-2.3,1.4c-0.7,0-1.5-0.9-2.3-1.4
		c-1-0.7-2-1.4-3.2-2.2c0.6,2,1,3.7,1.6,5.3c0.3,0.9,0.1,1.4-0.6,1.9c-1.4,1-2.8,2-4.1,3.1c0,0.1,0,0.2,0.1,0.3c1.7,0,3.5,0,5.2,0
		c0.9,0,1.3,0.3,1.6,1.1c0.5,1.7,1.1,3.4,1.8,5.2c0.7-1.9,1.3-3.6,1.9-5.3c0.2-0.8,0.7-1,1.5-1C351.9,409.8,353.7,409.7,355.5,409.7
		z M377.8,399.1c0.6,2,1.1,3.8,1.7,5.6c0.2,0.7,0.1,1.1-0.5,1.5c-1.1,0.7-2.1,1.6-3.2,2.4c-0.4,0.3-0.8,0.6-1.2,0.9
		c0,0.1,0.1,0.2,0.1,0.3c2.1,0,4.2,0,6.3,0c0.7,2.1,1.5,4.1,2.2,6.4c0.8-2.3,1.5-4.3,2.2-6.4c2.1,0,4.2,0,6.3,0
		c-1.2-1.2-2.4-2.1-3.6-3c-1.4-1-1.4-1-0.9-2.8c0.4-1.5,0.9-3,1.4-4.7c-1.8,1.2-3.3,2.2-4.8,3.3c-0.6,0.4-0.9,0.4-1.5,0
		C381,401.4,379.5,400.4,377.8,399.1z M265.6,409.4c0,0.1,0,0.2,0,0.4c1.8,0,3.7,0,5.5,0c0.7,0,1,0.2,1.2,0.8
		c0.6,1.8,1.2,3.5,1.9,5.5c0.6-1.8,1.2-3.3,1.7-4.9c0.3-1.1,0.8-1.6,2-1.5c1.6,0.1,3.2,0,4.9,0c0-0.1,0-0.2,0.1-0.4
		c-1.5-1.1-2.9-2.2-4.4-3.3c-0.6-0.4-0.7-0.7-0.5-1.4c0.6-1.8,1.1-3.5,1.6-5.4c-0.2,0-0.2,0-0.3,0c-1.1,0.8-2.3,1.6-3.4,2.4
		c-1.7,1.2-1.7,1.2-3.5,0c-1.1-0.8-2.3-1.6-3.7-2.6c0.6,2.1,1.1,3.9,1.7,5.6c0.2,0.6,0.1,0.9-0.4,1.3
		C268.5,407.2,267.1,408.3,265.6,409.4z M347,381.2c0.8-2.3,1.5-4.3,2.2-6.4c2.1,0,4.2,0,6.3,0c-1.4-1.3-2.8-2.4-4.3-3.5
		c-0.7-0.5-0.7-0.9-0.5-1.6c0.6-1.7,1.1-3.4,1.7-5.4c-1.8,1.2-3.3,2.2-4.8,3.4c-0.5,0.4-0.9,0.4-1.4,0c-1.5-1.1-3-2.1-4.8-3.4
		c0.6,1.9,1,3.7,1.6,5.4c0.3,0.8,0.1,1.2-0.6,1.7c-1.4,1-2.8,2.1-4.2,3.2c0,0.1,0,0.2,0,0.2c2.1,0,4.2,0,6.3,0
		C345.5,376.9,346.2,378.9,347,381.2z M310.5,415.8c0.1,0,0.2,0,0.2,0c0.4-0.9,0.7-1.9,1-2.9c0.4-1,0.4-2.4,1.2-3
		c0.7-0.6,2.1-0.2,3.2-0.3c1,0,2,0,3.1,0c0-0.1,0-0.2,0-0.3c-1.2-0.9-2.4-1.9-3.7-2.8c-1.3-1-1.3-1-0.8-2.7c0.4-1.5,0.9-3,1.4-4.8
		c-1.5,1.1-2.8,2-4.2,2.9c-1.7,1.1-0.9,1.1-2.6,0c-1.3-0.9-2.6-1.8-3.9-2.7c0,0.2,0,0.3,0,0.4c0.4,1.2,0.7,2.3,1,3.5
		c0.7,2.5,0.7,2.5-1.3,4c-1,0.7-2,1.5-3,2.2c0,0.1,0.1,0.2,0.1,0.3c2.1,0,4.2,0,6.3,0C309.1,411.8,309.8,413.8,310.5,415.8z
		 M305.2,434c0.1,0.5,0.1,0.7,0.2,0.9c0.5,1.6,0.9,3.2,1.4,4.7c0.2,0.6,0.1,0.9-0.4,1.3c-1.1,0.8-2.2,1.7-3.3,2.5
		c-0.4,0.3-0.8,0.6-1.2,0.9c0,0.1,0.1,0.2,0.1,0.3c1.9,0,3.7,0,5.6,0c0.6,0,0.9,0.2,1.1,0.7c0.5,1.5,1,3,1.6,4.5
		c0.1,0.2,0.2,0.5,0.4,0.9c0.7-1.9,1.3-3.6,1.9-5.3c0.2-0.7,0.6-0.9,1.3-0.9c1.5,0,3-0.1,4.4-0.1c0.4,0,0.7,0,1.1,0
		c-1.4-1.3-2.8-2.4-4.3-3.5c-0.6-0.4-0.7-0.8-0.5-1.5c0.6-1.7,1.1-3.5,1.7-5.5c-1.8,1.2-3.3,2.2-4.8,3.4c-0.5,0.4-0.9,0.4-1.4,0
		C308.4,436.3,306.9,435.2,305.2,434z M268.7,434c0.6,1.9,1,3.5,1.6,5.2c0.4,0.9,0.3,1.5-0.7,2.1c-0.9,0.6-1.7,1.2-2.5,1.9
		c-0.5,0.4-1,0.8-1.6,1.2c0,0.1,0.1,0.2,0.1,0.3c1.9,0,3.7,0,5.5,0c0.7,0,1,0.2,1.2,0.8c0.6,1.7,1.2,3.5,1.9,5.4
		c0.7-1.9,1.3-3.6,1.9-5.3c0.2-0.7,0.6-1,1.3-1c1.8,0,3.6,0,5.4,0c0-0.1,0-0.2,0-0.3c-1.5-1.1-3-2.3-4.5-3.4
		c-0.4-0.3-0.6-0.6-0.4-1.1c0.4-1.1,0.7-2.2,1-3.3c0.2-0.7,0.4-1.5,0.7-2.4c-1.8,1.2-3.3,2.3-4.8,3.4c-0.5,0.4-0.8,0.4-1.3,0
		C272,436.3,270.5,435.2,268.7,434z M243.4,434c-1.7,1.2-3.3,2.2-4.8,3.4c-0.5,0.4-0.9,0.4-1.5,0c-1.5-1.1-3-2.1-4.8-3.4
		c0.6,2,1.1,3.8,1.7,5.6c0.2,0.7,0,1.1-0.5,1.5c-1.5,1.1-2.9,2.2-4.3,3.3c0,0.1,0,0.2,0.1,0.3c1.9,0,3.7,0,5.6,0
		c0.6,0,0.9,0.2,1.1,0.8c0.6,1.8,1.2,3.5,1.9,5.5c0.4-1.3,0.8-2.4,1.2-3.4c0.3-0.9,0.4-2.2,1.1-2.6c0.7-0.5,2-0.2,3-0.3
		c1.1,0,2.2,0,3.4,0c-1.4-1.3-2.8-2.5-4.3-3.5c-0.6-0.4-0.7-0.9-0.5-1.5C242.3,437.7,242.8,436,243.4,434z M341.4,434
		c0.6,2,1.1,3.7,1.7,5.4c0.3,0.8,0.1,1.2-0.6,1.7c-1.5,1-2.8,2.1-4.3,3.2c0,0.1,0,0.2,0.1,0.3c1.9,0,3.7,0,5.6,0
		c0.6,0,0.9,0.2,1.1,0.8c0.6,1.8,1.2,3.5,1.9,5.5c0.7-1.9,1.3-3.6,1.9-5.4c0.2-0.7,0.6-0.9,1.3-0.9c1.8,0,3.6,0,5.4,0
		c0-0.1,0-0.2,0-0.3c-1.3-1-2.6-2-3.9-2.9c-0.9-0.6-1.2-1.2-0.8-2.3c0.6-1.5,1-3.2,1.5-5c-2,1.3-3.7,2.6-5.5,3.8
		C345.2,436.6,343.4,435.4,341.4,434z M391.8,444.6c0-0.1,0-0.2,0.1-0.3c-1.5-1.1-2.9-2.3-4.4-3.4c-0.5-0.4-0.6-0.7-0.4-1.3
		c0.5-1.5,0.9-3.1,1.4-4.7c0.1-0.2,0.1-0.4,0.2-0.9c-1.5,1-2.8,1.9-4.1,2.8c-1.3,0.9-1.3,0.9-2.6,0c-1.3-0.9-2.6-1.9-4.1-2.8
		c0,0.2,0,0.3,0,0.4c0.5,1.7,1,3.5,1.6,5.2c0.2,0.6,0.1,0.9-0.4,1.3c-0.9,0.6-1.9,1.4-2.8,2c-0.6,0.4-1.1,0.9-1.7,1.3
		c1.4,0.2,2.6,0.2,3.9,0.2c2.6,0.1,2.6,0.1,3.4,2.5c0.4,1.2,0.8,2.4,1.4,3.9c0.7-2,1.3-3.7,1.9-5.5c0.2-0.6,0.5-0.8,1.1-0.8
		C388.1,444.6,390,444.6,391.8,444.6z M391.8,305.3c0-0.1,0-0.2,0.1-0.2c-0.2-0.2-0.5-0.4-0.7-0.6c-1.3-0.9-2.5-1.9-3.7-2.8
		c-0.5-0.4-0.6-0.7-0.4-1.2c0.5-1.5,0.9-3.1,1.4-4.6c0.1-0.2,0.1-0.5,0.2-1c-2,1.3-3.7,2.6-5.4,3.8c-1.8-1.3-3.5-2.5-5.5-3.8
		c0.5,1.8,1,3.3,1.4,4.8c0.6,2,0.7,1.3-0.9,2.6c-1.2,1-2.5,1.9-3.7,2.9c0,0.1,0,0.2,0.1,0.2c1.8,0,3.7,0,5.5,0c0.7,0,1,0.2,1.2,0.9
		c0.6,1.7,1.2,3.5,1.9,5.4c0.7-2,1.3-3.7,1.9-5.5c0.2-0.7,0.5-0.8,1.2-0.8C388.2,305.4,390,305.3,391.8,305.3z M378.1,329.7
		c0,0-0.1,0.1-0.2,0.2c0.5,1.7,1,3.4,1.6,5.1c0.2,0.7,0.2,1.1-0.5,1.5c-1.3,0.9-2.5,1.9-3.8,2.8c-0.2,0.2-0.4,0.4-0.8,0.7
		c1.9,0,3.4,0,4.9,0c1.7,0,1.7,0,2.3,1.7c0.5,1.5,1,3,1.7,4.7c0.7-2,1.3-3.8,1.9-5.6c0.2-0.6,0.5-0.8,1.1-0.8c1.5,0,3,0,4.4-0.1
		c0.4,0,0.8,0,1.2,0c-1.4-1.3-2.8-2.4-4.3-3.5c-0.6-0.4-0.7-0.8-0.5-1.5c0.6-1.7,1.1-3.5,1.7-5.4c-1.7,1.2-3.3,2.2-4.8,3.3
		c-0.5,0.4-0.9,0.4-1.5,0C381.2,331.7,379.6,330.7,378.1,329.7z M352.4,329.8c0,0-0.1-0.1-0.2-0.1c-1.7,1.2-3.5,2.4-5.2,3.6
		c-1.8-1.2-3.5-2.4-5.5-3.7c0.6,2,1.1,3.8,1.7,5.6c0.2,0.6,0.1,0.9-0.4,1.3c-1.2,0.8-2.3,1.7-3.5,2.6c-0.4,0.3-0.7,0.5-1,0.8
		c0,0.1,0.1,0.2,0.1,0.3c1.8,0,3.7,0,5.5,0c0.7,0,1,0.2,1.2,0.9c0.6,1.8,1.2,3.5,1.9,5.4c0.2-0.5,0.3-0.8,0.4-1.1
		c0.5-1.5,1.1-3,1.5-4.5c0.2-0.6,0.5-0.8,1-0.8c1.5,0,3,0,4.4-0.1c0.4,0,0.8,0,1.2,0c-1.4-1.3-2.8-2.4-4.3-3.5
		c-0.6-0.4-0.7-0.9-0.5-1.5C351.4,333.3,351.9,331.5,352.4,329.8z"/>
	<path d="M199.8,567.9c-1,0-1.9,0-2.8,0c0-11,0-22,0-33.1c0.9,0,1.7,0,2.7,0c0,4.7,0,9.3,0,14.2c0.3-0.4,0.5-0.6,0.6-0.7
		c2.3-3.4,7.1-4.5,10.7-2.6c2.1,1.1,3,3.1,3.3,5.3c0.2,1,0.3,2.1,0.3,3.1c0,4.6,0,9.1,0,13.8c-0.9,0-1.8,0-2.8,0c0-0.4,0-0.7,0-1.1
		c0-4.4,0-8.9,0-13.3c0-0.8-0.1-1.6-0.3-2.3c-0.6-2.8-2.5-4.1-5.4-3.9c-3.1,0.3-5.2,2.2-5.9,5.6c-0.2,1.1-0.4,2.3-0.4,3.5
		c0,3.4,0,6.9,0,10.3C199.8,567.1,199.8,567.5,199.8,567.9z"/>
	<path d="M260,556.6c-0.1,3.9-1,7.3-4.1,9.8c-4.2,3.4-13.5,3.2-16.1-4.6c-1.4-4.1-1.3-8.1,0.7-12c1.7-3.3,4.6-4.8,8.2-5
		c7.1-0.4,10.8,4.6,11.2,10.4C259.9,555.7,260,556.1,260,556.6z M257.1,557.4c-0.1,0-0.2,0-0.2-0.1c0-2.2-0.2-4.4-1.3-6.4
		c-2.2-4.4-8.5-5-11.5-1.1c-2.6,3.4-2.8,9.6-0.3,13.2c3,4.4,9.6,3.9,11.9-0.9C256.3,560.7,256.6,559,257.1,557.4z"/>
	<path d="M334.8,557.4c-5.1,0-10.2,0-15.2,0c-0.7,4.5,2.9,8.8,7.2,8.6c1.8-0.1,3.6-0.8,5.4-1.2c0.3-0.1,0.6-0.2,1-0.4
		c0,0.9,0,1.7,0,2.4c0,0.2-0.3,0.6-0.6,0.6c-3.2,1.1-6.5,1.5-9.9,0.5c-2.9-0.8-4.7-2.8-5.6-5.6c-1.2-3.8-1.3-7.6,0.2-11.4
		c2.3-6,8-7.3,12.3-5.4c2.4,1.1,3.7,3.1,4.5,5.5C334.8,553.1,334.9,555.2,334.8,557.4z M319.5,555c4.1,0,8.1,0,12.1,0
		c0.3-4.3-2-7.6-5.5-7.7C322.4,547.2,319.2,550.9,319.5,555z"/>
	<path d="M398.9,548.3c-2.1-0.8-4.2-1.2-6.4-0.9c-2.2,0.2-3.5,1.5-3.4,3.6c0,1,0.5,1.7,1.3,2.2c1.3,0.7,2.8,1.4,4.1,2.1
		c1,0.6,2.1,1.1,3,1.8c2,1.5,2.9,3.5,2.5,6c-0.4,2.7-2.2,4.2-4.7,5c-2.8,0.8-5.6,0.5-8.4-0.2c-0.7-0.2-1.1-0.6-0.9-1.4
		c0.1-0.6,0.1-1.1,0.2-1.5c1.9,0.4,3.6,0.8,5.4,1.1c2,0.3,4.4-0.8,5.1-2.4c0.8-1.7,0.3-3.6-1.5-4.7c-1.5-0.9-3.1-1.7-4.7-2.5
		c-0.9-0.5-1.9-1.1-2.7-1.8c-2.8-2.6-2-7.2,1.3-8.9c2.4-1.3,5-1.1,7.6-0.6c2.4,0.5,2.4,0.5,2.2,2.8C399,548,399,548.1,398.9,548.3z"
		/>
	<path d="M294.3,565.6c0.1,0.1,0.1,0.1,0.1,0.2c0.5,2,0.4,2.2-1.7,2.6c-0.9,0.2-2,0.2-2.9,0.1c-2.4-0.3-3.7-2-3.7-4.8
		c-0.1-4.8-0.1-9.7-0.1-14.6c0-0.4,0-0.8,0-1.2c-1.5,0-2.9,0-4.4,0c0-0.8,0-1.6,0-2.5c1.4,0,2.8,0,4.4,0c0-1.5,0-2.8,0-4.2
		c0-0.9,0.2-1.5,1.2-1.7c0.6-0.1,1.1-0.4,1.7-0.6c0,2.1,0,4.2,0,6.3c1.7,0,3.4,0,5.1,0c0,0.9,0,1.6,0,2.4c-1.7,0-3.3,0-5.1,0
		c0,0.5,0,0.8,0,1.1c0,4.4,0,8.8,0,13.2c0,3.4,1.6,4.5,4.8,3.6C293.9,565.6,294.1,565.6,294.3,565.6z"/>
	<path d="M359.1,567.8c0-11,0-22,0-33.1c0.9,0,1.9,0,2.8,0c0,11,0,22,0,33.1C361,567.8,360.1,567.8,359.1,567.8z"/>
	<path d="M237.9,489.5c0-4.7,0.7-8.4,3.3-11.5c4.6-5.4,13.3-5.1,17.5,0.6c3.5,4.8,3.7,13.5,0.5,18.5c-2.6,4-6.4,5.5-11,5
		c-4.8-0.6-7.8-3.4-9.3-7.9C238.3,492.4,238.1,490.5,237.9,489.5z"/>
	<path d="M388.4,492.9c-4.8,0-9.4,0-14.3,0c2.4-5.9,4.7-11.7,7.1-17.7C383.7,481.2,386,487,388.4,492.9z"/>
</g>
</svg>
