<?xml version="1.0" encoding="utf-8"?>
<!-- Generator: Adobe Illustrator 23.0.1, SVG Export Plug-In . SVG Version: 6.00 Build 0)  -->
<svg version="1.1" id="Capa_1" xmlns="http://www.w3.org/2000/svg" xmlns:xlink="http://www.w3.org/1999/xlink" x="0px" y="0px"
	 viewBox="0 0 822 193.7" style="enable-background:new 0 0 822 193.7;" xml:space="preserve">
<g>
	<path d="M200,23.8c0,18,0.1,35.9,0,53.9c0,1.6-0.2,3.6-1.1,4.6c-11.6,12.1-23.3,24.1-35.3,36.5c-19.5-20.1-38.1-39.3-57-58.8
		c5.2-5.2,11.5-11.4,17.7-17.6c6-6.1,11.9-12.4,17.9-18.6C161.3,23.8,180.7,23.8,200,23.8z"/>
	<path d="M49,115.8c1.5-1.2,3.2-2.1,4.6-3.5C63.7,102,73.7,91.6,84,80.9c19.6,20.1,38.3,39.3,57.5,58.9
		c-11.1,10.9-22.8,22.5-34.4,34.1c-19.3,0-38.7,0-58,0C49,154.5,49,135.2,49,115.8z"/>
	<path d="M772.1,146.1c-1.4-0.2-18.8,0-18.8,0l-7.7-17.2h-44.3l-6.7,16l-19.8-0.5l35.6-87.1h25.3
		C735.5,57.4,772.1,145.6,772.1,146.1z M739.7,113.7c-5.9-13.4-11-24.9-16.9-38.5c-6,13.6-11.2,25.3-16.7,37.8
		C709.5,113.3,729.7,113.7,739.7,113.7z"/>
	<path d="M98,23.8C82.2,39.5,66.5,55.2,50.7,70.9c-0.4,0.4-1.1,0.6-1.7,0.9c0-16,0-32,0-48C65.3,23.8,81.7,23.8,98,23.8z"/>
	<path d="M151,173.8c16-15.8,32-31.7,49-48.4c0,17,0,32.7,0,48.4C183.7,173.8,167.3,173.8,151,173.8z"/>
	<path d="M368.9,55.6c-27,0-45.9,19.2-45.8,46.4c0.1,27,18.7,45.4,45.7,45.5c27.1,0,45.9-19,45.8-46.4
		C414.5,74.3,395.7,55.6,368.9,55.6z M368.3,132.5c-17.7-0.2-29-12.7-28.8-31.9c0.2-18.2,12-30.4,29.6-30.3
		c17.8,0.1,29.2,12.4,29.1,31.5C398.1,120.8,386.4,132.8,368.3,132.5z"/>
	<path d="M234.4,57.8c5.5,0,10.2,0,15.9,0c0,12.2,0,24.1,0,36.4c15,0,29,0,44.1,0c0-12.1,0-23.9,0-36.3c5.7,0,10.4,0,15.7,0
		c0,29,0,57.8,0,87.2c-4.7,0-9.2,0-15,0c0-11.3,0-22.8,0-34.8c-15.4,0-29.5,0-44.4,0c0,11.4,0,22.6,0,34.6c-5.8,0-10.7,0-16.2,0
		C234.4,116.1,234.4,87.3,234.4,57.8z"/>
	<path d="M668.4,70.3c-6.3,3.3-10,5.3-14.3,7.5c-7.7-7.5-17.1-10.6-27.9-8.9c-6.3,1-12,3.4-12.7,10.5c-0.6,7.3,5.3,9.4,11.1,10.6
		c8.3,1.8,16.9,2.8,25,5c13.1,3.6,19.3,11.6,19.6,23.6c0.3,12.3-5.9,21.3-18.3,25.8c-13,4.7-26.3,4.5-39.3-0.2
		c-8.4-3-14.5-8.7-17.9-18c4-2.2,7.9-4.3,12.6-6.8c7.7,12.5,19.5,14.9,32.6,13c6.7-1,13-3.5,13.7-11.7c0.7-8.5-5.4-11.2-12.1-12.8
		c-8-1.8-16.3-2.7-24.2-4.9c-12.7-3.5-18.5-10.7-18.8-22.1c-0.4-11.8,5.3-19.6,17.7-24.1c11.7-4.2,23.7-4.4,35,0.5
		C656.4,60.2,661.4,65.2,668.4,70.3z"/>
	<path d="M565.4,57.6c5.8,0,10.3,0,17,0c-1,21.8-0.3,43.4-3.5,64.6c-2.5,17.1-19.5,26.4-38.6,25.1c-19.5-1.3-34.3-12.5-35.8-30.4
		c-1.6-19.4-0.4-39.1-0.4-59.1c4.9,0,9.3,0,15.3,0c0,6.7-0.1,13.4,0,20.1c0.1,11.1-0.3,22.3,0.6,33.3c1.2,14.2,10.1,21.8,23.7,21.4
		c12.7-0.4,20.8-8.7,21.3-23c0.5-13.9,0.2-27.9,0.2-41.9C565.4,64.6,565.4,61.6,565.4,57.6z"/>
	<path d="M461.8,145.1c-6.1,0-10.6,0-16,0c0-24.2,0-47.9,0-72.7c-9.9,0-18.8,0-28.3,0c0-5.4,0-9.8,0-14.6c24,0,47.8,0,72.1,0
		c0,4.5,0,8.7,0,14c-8.9,0-17.8,0-27.7,0C461.8,96.7,461.8,120.5,461.8,145.1z"/>
</g>
</svg>
