<?xml version="1.0" encoding="utf-8"?>
<!-- Generator: Adobe Illustrator 23.0.1, SVG Export Plug-In . SVG Version: 6.00 Build 0)  -->
<svg version="1.1" id="Capa_1" xmlns="http://www.w3.org/2000/svg" xmlns:xlink="http://www.w3.org/1999/xlink" x="0px" y="0px"
	 viewBox="0 0 504.8 544" style="enable-background:new 0 0 504.8 544;" xml:space="preserve">
<g>
	<path d="M482.4,156.2c0,74.7,0,149.3,0,224c-0.2,0.6-0.5,1.2-0.6,1.9c-0.6,6.7-3.2,12.6-7.7,17.6c-4,4.4-8.9,7.5-14.1,10.4
		c-8.5,4.7-17,9.4-25.5,14.1c-14.4,8-28.9,15.9-43.3,23.9c-12.5,6.9-24.9,13.8-37.4,20.6c-16,8.8-32,17.7-48,26.5
		c-12.2,6.7-24.3,13.4-36.5,20.2c-6.9,3.8-14.1,6.1-22.1,5c-4.2-0.6-8.2-1.6-11.9-3.7c-11.8-6.4-23.6-12.9-35.4-19.3
		c-16.7-9.1-33.4-18.2-50.1-27.4c-12.1-6.6-24.2-13.2-36.2-19.8c-15.2-8.3-30.3-16.6-45.5-24.9c-8.3-4.5-16.6-9-24.8-13.6
		c-6.2-3.5-11.9-7.6-16.6-12.9c-5.8-6.4-8.9-13.8-8.9-22.6c0-24.6-0.2-49.1-0.3-73.6c0-10.8,0-21.6,0-32.3
		c0-36.3-0.1-72.5-0.1-108.8c0-1.7,0-3.5,0.3-5.2c1-6.5,4.3-11.8,8.8-16.4c5.7-5.8,12.5-10.1,19.5-14c7.6-4.3,15.3-8.4,22.9-12.5
		c16.8-9.2,33.6-18.4,50.4-27.5c13.7-7.4,27.3-14.9,41-22.4c15.6-8.5,31.2-17,46.7-25.5c9-4.9,18.1-9.8,27.1-14.9
		c5.5-3.1,11.3-4.9,17.7-4.7c4.4,0.1,8.5,1.1,12.4,3.2c10.7,5.9,21.4,11.8,32.1,17.7c17.6,9.6,35.1,19.3,52.6,29
		c16.2,9,32.5,17.9,48.8,26.8c19.3,10.7,38.7,21.3,58,32c5.5,3.1,11,6.2,15.8,10.4c5.5,4.7,9.4,10.4,10.2,17.9
		C482,155.5,482.3,155.9,482.4,156.2z M361.7,235.6c-0.1,0-0.2,0.1-0.3,0.1c-0.3-0.5-0.6-1-0.8-1.5c-8-15.7-16-31.4-24-47.1
		c-1-2-2.1-3.9-3.4-5.6c-2.7-3.8-6.3-6-11.1-6.1c-4.5-0.1-8,1.4-9.6,6.1c-0.6,1.8-1,3.8-1,5.6c-0.1,6.5,0,13-0.1,19.6
		c0,17.3,0,34.6,0,51.9c0,2.1,0.1,2.3,2.2,2.3c3.3,0,6.6,0,10,0c3.6,0,3.6,0,3.6-3.7c0-18.1,0-36.2,0-54.3c0-0.7,0.1-1.3,0.1-2
		c0.5,0.5,0.8,0.9,1,1.4c8.1,15.9,16.1,31.8,24.3,47.6c1.2,2.4,2.6,4.6,4.2,6.7c2.7,3.6,6.4,5.2,11,5c4.4-0.2,7.6-2.5,8.9-6.7
		c0.5-1.8,0.9-3.8,0.9-5.7c0.1-23.7,0-47.4,0-71.1c0-2.2-0.1-2.3-2.4-2.3c-3.5,0-6.9,0-10.4,0c-3.1,0-3.1,0-3.1,3.1
		c0,18,0,36.1,0,54.1C361.7,234,361.7,234.8,361.7,235.6z M201.2,227.3c0.3-0.3,0.3-0.4,0.4-0.4c0.5-0.3,1.1-0.5,1.6-0.8
		c6.5-2.7,10.5-7.5,12.2-14.3c1.5-5.9,1.6-12,0.4-18c-1.7-8.6-6.8-14.2-15.2-16.7c-4.4-1.3-8.8-1.8-13.4-1.9
		c-4.7-0.1-9.3,0.2-14,0.3c-5,0.1-9.9,0.8-14.8,1.6c-2.2,0.4-2.3,0.5-2.3,2.7c0,26.2,0,52.4,0,78.6c0,2.2,0.2,2.4,2.4,2.4
		c4.3,0,8.5,0,12.8,0c0.3,0,0.5,0,0.8,0c0.9,0,1.5-0.5,1.5-1.5c0-0.6,0-1.2,0-1.8c0-8.6,0-17.2,0-25.7c0-0.5,0-1.1,0-1.6
		c0-0.9,0.4-1.4,1.3-1.3c2.3,0.1,4.5,0.2,6.8,0.3c1.1,0,1.7,0.6,2.1,1.5c0.7,1.4,1.5,2.8,2.3,4.2c4.3,8,8.6,16,12.8,24.1
		c0.7,1.3,1.5,1.9,2.9,1.9c5.2-0.1,10.4,0,15.6,0c0.6,0,1.3-0.2,2.3-0.3c-3.2-5.8-6.3-11.3-9.4-16.8
		C207.3,238.3,204.2,232.8,201.2,227.3z M296.3,218.6c-0.2-3.9-0.3-7.8-0.6-11.7c-0.3-4.9-1.2-9.6-2.8-14.2
		c-2.9-8.2-8.4-13.7-16.9-15.7c-8.9-2.2-17.9-2.2-26.8,0.1c-5.9,1.5-10.7,4.7-13.8,10.1c-1.4,2.5-2.6,5.3-3.4,8
		c-1.8,5.9-2.4,12-2.4,18.1c0,5.4,0.2,10.9,0.4,16.3c0.1,4.4,0.9,8.7,2.2,12.9c2.7,9.4,8.5,15.7,18.2,17.9c8.4,2,16.9,2,25.3,0
		c7-1.7,12.4-5.6,15.7-12.1c1.5-3,2.5-6.1,3.2-9.4C295.9,232.1,296.3,225.4,296.3,218.6z M121.4,218.3c0,13.4,0,26.7,0,40.1
		c0,2.4,0.1,2.5,2.5,2.5c3.9,0,7.8,0,11.8,0c3.5,0,3.5,0,3.5-3.5c0-25.9,0-51.8,0-77.6c0-0.5,0-0.9,0-1.4c-0.1-2-0.3-2.3-2.4-2.3
		c-4.2,0-8.4,0-12.6,0c-2.8,0-2.9,0-2.9,2.9C121.4,192.1,121.4,205.2,121.4,218.3z M172.2,366.7c1.5,0,2.8,0,4.1,0
		c2.9,0,2.9,0,2.9-3c0-24.4,0-48.7,0-73c0-0.4,0-0.8,0-1.2c-0.1-1.4-0.3-1.6-1.6-1.7c-1-0.1-2,0-3,0c-2.9,0-2.9,0-2.9,2.9
		c0,9.9,0,19.8,0,29.7c0,0.5,0,1.1,0,1.6c0,0.8-0.4,1.2-1.2,1.2c-0.4,0-0.8,0-1.2,0c-12.5,0-25,0-37.5,0c-0.5,0-0.9,0-1.4,0
		c-0.6,0-1-0.4-1-1c0-0.5,0-1.1,0-1.6c0-10,0-20,0-29.9c0-0.6,0.1-1.2-0.1-1.8c-0.1-0.4-0.5-1-0.8-1c-2-0.2-4.1-0.4-6,0.1
		c-0.1,0.4-0.2,0.6-0.2,0.8c0,0.4,0,0.8,0,1.2c0,25.2,0,50.4,0,75.6c0,0.2,0.1,0.4,0.1,0.6c0,0.1,0.1,0.1,0.1,0.2s0.1,0.1,0.3,0.4
		c1.7,0,3.5,0,5.3,0c0.8,0,1.2-0.5,1.2-1.3c0-0.6,0-1.2,0-1.8c0-9.2,0-18.4,0-27.5c0-1.6,0-3.2,0-4.8c0-1.5,0.2-1.6,1.8-1.7
		c0.3,0,0.7,0,1,0c12.4,0,24.9,0,37.3,0c0.4,0,0.8,0,1.2,0c1.3,0.1,1.4,0.2,1.5,1.6c0,0.5,0,0.9,0,1.4c0,10.4,0,20.9,0,31.3
		C172.1,364.8,172.2,365.6,172.2,366.7z M258.2,366.6c0-1.4-0.6-2.6-1-3.7c-5-13.4-9.9-26.8-14.9-40.2c-3.8-10.2-7.6-20.4-11.5-30.6
		c-0.5-1.3-1.2-2.7-2.2-3.7c-1.9-2.1-4.7-1.9-6.4,0.3c-0.8,1.1-1.5,2.4-2,3.7c-4.1,10.7-8.1,21.5-12.1,32.3
		c-5,13.3-9.9,26.5-14.9,39.7c-0.2,0.7-0.4,1.3-0.7,2.4c2.2,0,4,0,5.9,0c1,0,1.6-0.4,1.9-1.4c0.2-0.5,0.4-1,0.5-1.5
		c2.3-6.2,4.5-12.4,6.8-18.5c0.7-1.8,0.7-1.8,2.6-1.8c10.1,0,20.2,0,30.3,0c1.9,0,1.9,0,2.6,1.8c1.4,3.7,2.7,7.4,4.1,11
		c1.1,2.9,2.1,5.9,3.2,8.8c0.3,0.7,0.5,1.5,1.4,1.5C253.8,366.7,255.9,366.9,258.2,366.6z M333.3,323.5c0-1,0-1.6,0-2.3
		c0-10.1,0-20.2,0-30.3c0-0.5,0-1.1,0-1.6c0-1-0.5-1.4-1.5-1.5c-1.1,0-2.1,0-3.2,0c-2.4,0-2.5,0.1-2.5,2.5c0,0.1,0,0.3,0,0.4
		c0,24.4,0,48.8,0,73.3c0,0.6-0.1,1.2,0.1,1.8c0.1,0.4,0.5,0.9,0.8,0.9c2,0.1,4.1,0.3,6.3-0.2c0-12.5,0-24.9,0-37.6
		c0.8,0.8,1.2,1.2,1.7,1.7c5.9,6.2,11.8,12.5,17.6,18.8c5,5.3,10.1,10.6,15.1,16c1,1.1,2,1.6,3.5,1.5c1.7-0.1,3.5,0,5.2,0
		c0.4,0,0.8-0.2,1.7-0.3c-2.6-3.1-5.2-5.5-7.6-8.2c-2.5-2.7-5-5.3-7.5-8c-2.6-2.7-5.1-5.4-7.7-8.1c-2.5-2.7-5-5.3-7.5-8
		s-5-5.3-7.6-8c0.5-0.6,0.9-1.1,1.3-1.5c4.9-5,9.9-10.1,14.8-15.1c6.3-6.5,12.7-12.9,19-19.4c0.5-0.5,1-1.2,1.8-2.1
		c-1-0.1-1.6-0.3-2.1-0.3c-1.3,0-2.7,0.1-4,0c-1.7-0.1-2.9,0.5-4,1.7c-9,9.3-18,18.5-27.1,27.7C337.7,319.2,335.7,321.2,333.3,323.5
		z M312.3,365.9c-0.2-1.7-0.3-3.1-0.5-4.4c-0.2-1.4-0.5-1.5-1.9-1.4c-3.1,0.3-6.2,0.6-9.3,0.8c-4.4,0.3-8.8,0-13.1-1
		c-7.2-1.6-12-5.9-14.1-13.2c-1-3.7-1.5-7.4-1.6-11.2c-0.1-5.4-0.2-10.9,0-16.3c0.1-3.5,0.5-7,1.3-10.5c1.4-6.6,5-11.5,11.7-13.6
		c5.1-1.6,10.3-2,15.6-1.7c3.2,0.1,6.3,0.6,9.5,0.9c1.4,0.1,1.6,0,1.8-1.4c0.2-1,0.3-2.1,0.4-3.2s-0.3-1.6-1.4-1.7
		c-2.3-0.2-4.6-0.7-6.9-0.9c-3.1-0.3-6.2-0.5-9.3-0.5c-2.5,0-5,0.3-7.5,0.7c-3.5,0.5-6.9,1.5-10,3.2c-5.4,3-8.5,7.9-10.3,13.7
		c-1.6,5.2-2.3,10.5-2.4,15.9c-0.1,6.2,0.1,12.5,0.4,18.7c0.1,4,0.9,7.9,2.2,11.7c2,6.4,5.8,11.3,12.1,14.1c3.1,1.4,6.4,2,9.8,2.5
		c5,0.6,10,0.4,14.9-0.1C306.4,366.8,309.2,366.3,312.3,365.9z"/>
	<path d="M210.6,337.1c10,0,19.5,0,29.1,0c0-0.3,0.1-0.5,0-0.7c-4.6-12.5-9.1-25.1-13.7-37.6c-0.1-0.2-0.2-0.5-0.4-0.7
		c0,0-0.1-0.1-0.2-0.1c-0.1,0-0.1,0-0.3,0.1C220.3,311,215.5,323.9,210.6,337.1z"/>
	<path d="M173.6,202c0-3.4,0-6.8,0-10.2c0-1.8,0.3-2.1,2-2.2c4.4-0.3,8.7-0.8,13.1-0.1c1.4,0.3,2.9,0.4,4.3,0.9
		c3.6,1.2,5.6,3.8,6.2,7.6c0.4,2.4,0.4,4.7,0.1,7.1c-0.7,4.6-3.1,7.6-7.5,8.9c-3.5,1-7.2,1.1-10.9,1.1c-1.7,0-3.5-0.2-5.2-0.3
		c-2.1-0.1-2.2-0.2-2.2-2.4C173.6,208.9,173.6,205.4,173.6,202z"/>
	<path d="M247.3,218.7c0.2-4.5,0.3-8.9,0.7-13.4c0.2-2.4,0.8-4.9,1.5-7.2c1.4-4.3,4.5-6.9,8.9-7.7c3.2-0.6,6.5-0.6,9.7,0.1
		c4.4,0.9,7.3,3.7,8.7,7.9c0.7,2.3,1.3,4.6,1.5,7c0.6,7.2,0.8,14.5,0.2,21.7c-0.2,2.9-0.5,5.8-1,8.7c-0.3,1.7-1,3.4-1.8,5
		c-1.3,2.5-3.4,4.3-6.1,5.1c-4.2,1.3-8.4,1.3-12.6,0.1c-3.7-1.1-6.3-3.5-7.5-7.2c-0.8-2.3-1.3-4.8-1.6-7.2
		C247.5,227.5,247.5,223.1,247.3,218.7z"/>
	<path d="M210.6,337.1c5-13.3,9.7-26.2,14.5-39.1c0.2,0,0.3-0.1,0.3-0.1c0.1,0,0.1,0,0.2,0.1c0.1,0.2,0.3,0.4,0.4,0.7
		c4.6,12.5,9.2,25.1,13.7,37.6c0.1,0.2,0,0.4,0,0.7C230.1,337.1,220.6,337.1,210.6,337.1z"/>
</g>
</svg>
