<?xml version="1.0" encoding="utf-8"?>
<!-- Generator: Adobe Illustrator 23.0.1, SVG Export Plug-In . SVG Version: 6.00 Build 0)  -->
<svg version="1.1" id="Capa_1" xmlns="http://www.w3.org/2000/svg" xmlns:xlink="http://www.w3.org/1999/xlink" x="0px" y="0px"
	 viewBox="0 0 191.8 35" style="enable-background:new 0 0 191.8 35;" xml:space="preserve">
<g>
	<g>
		<path d="M43.8,32.5c-1.7,0-3.1-0.4-3.1-0.4v-2.9h1.4v1.5l0.3,0.3c0.4,0.1,0.9,0.1,1.4,0.1c1.2,0,1.6-0.6,1.6-1.4
			c0-0.9-0.3-1.2-1.6-1.5c-2.1-0.6-3.1-1.3-3.1-3.3c0-2,1.6-3,3.9-3c1.6,0,2.8,0.4,2.8,0.4V25H46v-1.4l-0.2-0.2
			c-0.3-0.1-0.7-0.1-1.2-0.1c-1,0-1.6,0.5-1.6,1.2c0,0.8,0.2,1.1,1.8,1.6c1.9,0.5,3,1.3,3,3.1C47.8,31.5,46.2,32.5,43.8,32.5z"/>
		<path d="M55,28.8h-3.9c0.1,1.6,0.7,2.2,2.1,2.2c0.8,0,1.4-0.2,1.6-0.3V32c-0.4,0.3-1.1,0.5-2.4,0.5c-1.9,0-3.6-1.1-3.6-3.9
			c0-2.9,1.5-4.2,3.4-4.2c1.8,0,3,1.2,3,3.2v1L55,28.8z M51.2,27.8h2v-0.4c0-1.1-0.2-1.7-0.9-1.7C51.6,25.8,51.2,26.5,51.2,27.8z"/>
		<path d="M59.6,29.4c-0.4,0-0.7,0-1-0.1c-0.2,0.1-0.3,0.3-0.3,0.5c0,0.3,0.2,0.4,0.6,0.4h2.2c1.4,0,2.5,0.4,2.5,2
			c0,1.9-1.9,2.7-4.2,2.7c-2,0-3.2-0.4-3.2-1.7c0-0.6,0.5-1,1-1.3c-0.5-0.2-0.9-0.7-0.9-1.4c0-0.6,0.4-1.3,1.2-1.8
			c-0.7-0.4-1.1-1.1-1.1-2c0-1.7,1.4-2.5,3.1-2.5c0.4,0,0.8,0,1.2,0.1h2.8v1.1h-1l-0.1,0.1c0.2,0.3,0.3,0.7,0.3,1.1
			C62.7,28.6,61.3,29.4,59.6,29.4z M58.3,32.2c-0.1,0.1-0.3,0.4-0.3,0.8c0,0.6,0.4,1,1.5,1c1.1,0,1.9-0.4,1.9-1.1
			c0-0.6-0.3-0.7-0.9-0.7H58.3z M59.6,25.6c-0.7,0-1.1,0.4-1.1,1.3c0,0.8,0.4,1.3,1.1,1.3c0.7,0,1.1-0.4,1.1-1.3
			C60.7,26,60.3,25.6,59.6,25.6z"/>
		<path d="M70.9,24.6c0.6,0,0.7,0.3,0.7,0.6V31l0.3,0.3h0.6v1.1h-2.3c-0.6,0-0.7-0.3-0.7-0.6v-0.2h-0.1c-0.2,0.3-1,1-2.1,1
			c-1.8,0-2.3-1.1-2.3-2.4v-4.2l-0.3-0.3h-0.6v-1.1h2.5c0.6,0,0.7,0.3,0.7,0.6v4.6c0,0.4,0,1,0.9,1c0.5,0,0.9-0.2,1.2-0.4v-4.5
			l-0.3-0.3h-0.6v-1.1H70.9z"/>
		<path d="M76.7,31.3h0.8v1.1h-4.2v-1.1H74l0.3-0.3v-5.1L74,25.6h-0.6v-1.1h2.3c0.6,0,0.7,0.3,0.7,0.6v0.4h0.1
			c0.2-0.3,1-1.2,2.1-1.2c0.3,0,0.6,0,0.6,0v3.1h-1.3v-1l-0.2-0.2c-0.5,0.1-0.8,0.3-1,0.4V31L76.7,31.3z"/>
		<path d="M83.4,32.5c-2,0-3.5-1.2-3.5-4c0-2.8,1.5-4,3.5-4c2,0,3.5,1.2,3.5,4C86.9,31.3,85.4,32.5,83.4,32.5z M83.4,25.8
			c-1,0-1.2,0.9-1.2,2.6c0,1.8,0.2,2.6,1.2,2.6c1,0,1.2-0.9,1.2-2.6C84.6,26.7,84.4,25.8,83.4,25.8z"/>
		<path d="M90.6,32.5c-1.6,0-2.5-0.3-2.5-0.3V30h1.2v1l0.3,0.3c0.3,0,0.6,0.1,1,0.1c0.9,0,1.1-0.4,1.1-0.9c0-0.6-0.2-0.9-1.4-1.1
			c-1.8-0.4-2.2-1.3-2.2-2.4c0-1.6,1.1-2.5,3.1-2.5c1.3,0,2.2,0.2,2.2,0.2v2.1h-1.2v-0.9L92,25.7c-0.2,0-0.5-0.1-0.8-0.1
			c-0.7,0-1.2,0.3-1.2,0.8c0,0.5,0,0.8,1.1,1c1.9,0.4,2.6,1.1,2.6,2.3C93.8,31.6,92.5,32.5,90.6,32.5z"/>
	</g>
	<g>
		<path d="M54.7,18.3h-2.9L44.6,7.5V16l0.4,0.4h1.1v1.8H40v-1.8h1.1l0.4-0.4V3.3l-0.4-0.4H40V1.1h5.1l6.5,9.8V3.3l-0.4-0.4h-1.1V1.1
			h6.1v1.8h-1.1l-0.4,0.4V18.3z"/>
		<path d="M62.9,18.5c-3.3,0-5.8-2.1-5.8-6.7S59.6,5,62.9,5c3.3,0,5.8,2.1,5.8,6.7S66.2,18.5,62.9,18.5z M62.9,7.3
			c-1.6,0-2.1,1.4-2.1,4.4c0,3,0.4,4.4,2.1,4.4c1.6,0,2.1-1.4,2.1-4.4C65,8.8,64.6,7.3,62.9,7.3z"/>
		<path d="M75.7,16.4h1.4v1.8h-7v-1.8h1.1l0.4-0.4V7.5L71.1,7H70V5.3h3.9c1,0,1.1,0.6,1.1,1.1V7h0.1c0.4-0.5,1.6-2,3.5-2
			c0.5,0,0.9,0.1,0.9,0.1v5.1h-2.2V8.5L77,8.1c-0.8,0.1-1.4,0.4-1.7,0.6V16L75.7,16.4z"/>
		<path d="M85.6,7.1V16l0.4,0.4h2.4v1.8c0,0-1.6,0.2-3.3,0.2c-2.1,0-3.2-0.8-3.2-3V7.1h-1.5V5.3h1.1l0.4-0.4l1.4-3h2.3v3.5h2.7v1.8
			L85.6,7.1L85.6,7.1z"/>
		<path d="M99.4,12.4h-6.5c0.1,2.7,1.1,3.7,3.5,3.7c1.3,0,2.3-0.4,2.7-0.5v2c-0.6,0.4-1.9,0.9-4,0.9c-3.2,0-6-1.9-6-6.5
			c0-4.7,2.5-7,5.6-7c3,0,5.1,2,5.1,5.3v1.7L99.4,12.4z M93,10.7h3.4V10c0-1.9-0.4-2.8-1.5-2.8C93.7,7.2,93.1,8.5,93,10.7z"/>
		<path d="M111.7,10.8h-5.2V16l0.4,0.4h1.1v1.8h-7v-1.8h1.1l0.4-0.4V3.3l-0.4-0.4H101V1.1h7v1.8h-1.1l-0.4,0.4v4.9h5.2V3.3l-0.4-0.4
			h-1.1V1.1h7v1.8h-1.1l-0.4,0.4V16l0.4,0.4h1.1v1.8h-7v-1.8h1.1l0.4-0.4V10.8z"/>
		<path d="M122.8,5.3c1,0,1.1,0.6,1.1,1.1V16l0.4,0.4h1.1v1.8h-6.8v-1.8h1.1l0.4-0.4V7.5L119.7,7h-1.1V5.3H122.8z M121.8,0
			c1.4,0,2.1,0.8,2.1,2s-0.7,2-2.1,2c-1.4,0-2.1-0.8-2.1-2S120.4,0,121.8,0z"/>
		<path d="M130.9,18.5c-2.6,0-4.2-0.6-4.2-0.6v-3.6h2v1.6l0.4,0.4c0.5,0.1,1.1,0.1,1.7,0.1c1.4,0,1.9-0.6,1.9-1.6
			c0-1-0.3-1.4-2.3-1.8c-3-0.6-3.7-2.2-3.7-3.9c0-2.6,1.9-4.1,5.2-4.1c2.1,0,3.7,0.4,3.7,0.4V9h-2V7.5l-0.4-0.4
			C132.9,7,132.4,7,132,7c-1.2,0-2,0.5-2,1.3c0,0.8,0.1,1.4,1.9,1.7c3.2,0.7,4.4,1.8,4.4,3.8C136.3,17,134,18.5,130.9,18.5z"/>
		<path d="M137.3,5.3h3.9c1,0,1.1,0.6,1.1,1.1v0.4h0.1c0.6-0.8,1.9-1.7,3.3-1.7c2.5,0,4.7,2,4.7,6.6c0,4.6-2.1,6.9-4.7,6.9
			c-1.2,0-2.5-0.7-3.2-1.5v3.2l0.4,0.4h1.2v1.8h-6.9v-1.8h1.1l0.4-0.4V7.5L138.4,7h-1.1V5.3z M144.4,7.8c-0.5,0-1.2,0.3-1.9,0.9v6.4
			c0.6,0.5,1.3,0.6,1.9,0.6c1.6,0,2.2-1.1,2.2-4C146.6,8.9,146.1,7.8,144.4,7.8z"/>
		<path d="M163.9,18.2H160c-1,0-1.1-0.6-1.1-1.1v-0.4h-0.1c-0.4,0.4-1.6,1.7-3.5,1.7c-2.8,0-3.7-1.8-3.7-3.9c0-2.3,1.7-3.6,4.3-3.6
			h2.8V9.8c0-1.4-0.1-2.5-2.2-2.5c-0.3,0-0.7,0-1.1,0.1L155,7.8v1.7h-2.3V5.7c0,0,2.1-0.7,5.1-0.7c3.5,0,4.6,1.9,4.6,4.2V16l0.4,0.4
			h1.1L163.9,18.2L163.9,18.2z M158.7,15.1v-2.1h-1.7c-1.1,0-1.6,0.5-1.6,1.3c0,1,0.3,1.5,1.5,1.5C157.6,15.7,158.3,15.3,158.7,15.1
			z"/>
		<path d="M164.7,18.2v-1.8h1.1l0.4-0.4V7.5L165.8,7h-1.1V5.3h3.9c1,0,1.1,0.6,1.1,1.1v0.4h0.1c0.4-0.4,1.7-1.7,3.6-1.7
			c2.9,0,3.8,1.8,3.8,3.9V16l0.4,0.4h1.1v1.8h-6.5v-1.8h0.8l0.4-0.4V9.5c0-0.7-0.1-1.7-1.6-1.7c-0.9,0-1.6,0.4-1.9,0.7V16l0.4,0.4
			h0.8v1.8H164.7z"/>
		<path d="M191.8,18.2H188c-1,0-1.1-0.6-1.1-1.1v-0.4h-0.1c-0.4,0.4-1.6,1.7-3.5,1.7c-2.8,0-3.7-1.8-3.7-3.9c0-2.3,1.7-3.6,4.3-3.6
			h2.8V9.8c0-1.4-0.1-2.5-2.2-2.5c-0.3,0-0.7,0-1.1,0.1L183,7.8v1.7h-2.3V5.7c0,0,2.1-0.7,5.1-0.7c3.5,0,4.6,1.9,4.6,4.2V16l0.4,0.4
			h1.1L191.8,18.2L191.8,18.2z M186.6,15.1v-2.1h-1.7c-1.1,0-1.6,0.5-1.6,1.3c0,1,0.3,1.5,1.5,1.5C185.5,15.7,186.2,15.3,186.6,15.1
			z"/>
	</g>
	<path d="M14.1,18.6c3.7,3.6,5.2,9.7,5.8,12.1c0.4,1.4,1.8,2.2,3.2,1.9c1.4-0.4,2.2-1.8,1.9-3.2C24.4,27,22.6,21,24,16
		c1.3-5.1,5.8-9.4,7.6-11.1c1-1,1-2.7,0-3.7c-1-1-2.7-1-3.7,0c-1.8,1.8-6.1,6.3-11.1,7.6l0,0c-5,1.4-11-0.4-13.4-1
		C1.9,7.3,0.5,8.2,0.1,9.6C-0.3,11,0.6,12.4,2,12.8C4.4,13.5,10.5,14.9,14.1,18.6L14.1,18.6z"/>
</g>
</svg>
