<?xml version="1.0" encoding="utf-8"?>
<!-- Generator: Adobe Illustrator 23.0.1, SVG Export Plug-In . SVG Version: 6.00 Build 0)  -->
<svg version="1.1" id="svg21759" xmlns:svg="http://www.w3.org/2000/svg"
	 xmlns="http://www.w3.org/2000/svg" xmlns:xlink="http://www.w3.org/1999/xlink" x="0px" y="0px" viewBox="0 0 502 82.9"
	 style="enable-background:new 0 0 502 82.9;" xml:space="preserve">
<path id="path21132" d="M78.4,27.1c-1.4,0-2.7,0.5-3.7,1.5L58.6,44.7c-1,1-1.5,2.3-1.5,3.7v27.1h10.3V45.8c0-4.7,3.8-8.5,8.5-8.5
	h29.6V27.1L78.4,27.1 M49.7,44.7c0,0-16.1-16.1-16.1-16.1c-1-1-2.3-1.5-3.7-1.5H2.8v10.3h29.6c2.3,0,4.4,0.9,6,2.5
	c1.6,1.6,2.5,3.7,2.5,6v29.6h10.3V48.4C51.2,47,50.7,45.7,49.7,44.7"/>
<path id="path21214" d="M316.3,4v29.7h-0.7l-0.1-0.1c-3.2-5.1-8.5-7.7-16-7.7c-5.7,0-10.4,1.8-14,5.4c-4.4,4.4-6.8,11.2-6.8,19
	c0,8.7,2.7,16.4,7.3,21c3.5,3.5,8,5.3,13.5,5.3c8.3,0,13.9-4.1,16.4-7.9l0.1-0.1h0.6v6.8h8V4L316.3,4L316.3,4z M316.3,51.4
	c0,5.9-2,11.5-5.4,14.9c-2.5,2.5-5.6,3.8-9.3,3.8c-3.3,0-6.1-1.2-8.5-3.6c-4.1-4.2-5.5-10.9-5.3-15.3c-0.1-6.2,1.6-11.7,4.8-15
	c2.3-2.4,5.3-3.6,8.9-3.6c3.7,0,6.8,1.3,9.4,3.8C314.4,39.8,316.3,45.2,316.3,51.4 M483.5,4v29.7h-0.6l-0.1-0.1
	c-3.2-5.1-8.5-7.7-16-7.7c-5.7,0-10.4,1.8-14,5.4c-4.4,4.4-6.8,11.2-6.8,19c0,8.7,2.6,16.4,7.3,21c3.5,3.5,8,5.3,13.5,5.3
	c8.3,0,13.9-4.1,16.4-7.9l0.1-0.1h0.6v6.8h8V4L483.5,4L483.5,4z M483.5,51.4c0,5.9-2,11.5-5.4,14.9c-2.5,2.5-5.6,3.8-9.3,3.8
	c-3.3,0-6.1-1.2-8.5-3.6c-4.1-4.2-5.4-10.9-5.3-15.3c-0.1-6.2,1.6-11.7,4.8-15c2.3-2.4,5.3-3.6,8.9-3.6c3.7,0,6.8,1.3,9.4,3.8
	C481.6,39.8,483.5,45.2,483.5,51.4 M390.1,70c-2.1,0-4-0.8-5.4-2.2c-1.6-1.6-2.5-4-2.5-6.9V33.7h13v-6.7h-13V13l-8.4,2.7v11.4h-11
	v6.7h11v29c0,4.4,1.2,7.8,3.5,10.2c2.5,2.5,6.2,3.7,11.2,3.7c2.8,0,5.6-0.8,7.4-1.3v-6.9C394.2,69.5,392.2,70,390.1,70 M348.6,47.6
	c-4.6-2.1-9-4.1-9-8.8c0-3.8,3.5-6.3,8.9-6.3c2,0,6.9,1.1,9.3,2.3l0.7-7.1c-3.7-1.1-7-1.9-10.9-1.9c-5.6,0-10.1,1.6-13.1,4.6
	c-2.5,2.5-3.8,6-3.8,10.2c0,7.5,6.4,10.6,12.1,13.4c4.7,2.3,9.1,4.4,9.1,8.6c0,1.9-0.6,3.5-1.9,4.7c-2.4,2.4-6.1,2.6-7.6,2.6
	c-2.4,0-7.3-1-11-3.3l-0.4,7.4c4.4,2.3,9.3,2.5,13.1,2.5c4.5,0,8.7-1.3,11.6-3.6c3.4-2.7,5.2-6.6,5.2-11.3
	C360.8,53.1,354.4,50.2,348.6,47.6 M266.9,30.4c-3-3-7.3-4.5-12.8-4.5c-6.9,0-13.3,3.5-15.8,8.7l-0.1,0.2h-0.7v-7.7h-8.1v48.4h8.4
	V53.1c0-6.3,1.2-11.3,3.6-14.8c2.6-3.8,6.5-5.8,11.6-5.8c7.7,0.5,10.7,5.5,10.7,17.8v25.1h8.4V46.6
	C272.1,39.3,270.4,33.8,266.9,30.4 M216.7,30.6c-3.2-3.2-7.9-4.7-14.5-4.7c-5.4,0-10.8,1.5-15.8,4.5l0.4,7c3.7-3,9-4.8,13.9-4.8
	c4.2,0,7.3,1,9.3,3c2.1,2.1,3.1,5.3,3.1,10.2V46l-0.3,0c-3.6-0.2-6.1-0.2-9.6-0.2c-5.9,0-13.9,1.6-18.6,6.3
	c-2.6,2.6-3.9,5.8-3.9,9.6c0,4.4,1.3,8,3.8,10.5c3,3,7.8,4.5,13.8,4.5c8.7,0,13.3-5.1,14.9-7.3l0.1-0.1h0.6v6.2h7.4V45.8
	C221.5,38.8,219.9,33.8,216.7,30.6 M213.1,52.1v4.6c0,3.8-1.2,7.1-3.5,9.5c-2.5,2.5-6,3.8-10.4,3.8c-2.6,0-5.4-1.1-7.1-2.9
	c-1.5-1.5-2.3-3.4-2.3-5.5c0-8.8,12.1-9.8,17.3-9.8c1,0,1.9,0,2.9,0.1c0.9,0,1.9,0.1,2.9,0.1L213.1,52.1 M434.6,30.6
	c-3.1-3.2-7.9-4.7-14.5-4.7c-5.4,0-10.8,1.5-15.8,4.5l0.4,7c3.7-3,9-4.8,13.9-4.8c4.2,0,7.3,1,9.3,3c2.1,2.1,3.1,5.3,3.1,10.2V46
	l-0.3,0c-3.6-0.2-6.1-0.2-9.6-0.2c-6,0-14,1.6-18.6,6.3c-2.6,2.6-3.9,5.8-3.9,9.6c0,4.4,1.3,8,3.8,10.5c3,3,7.8,4.5,13.9,4.5
	c8.7,0,13.3-5.1,14.9-7.3l0.1-0.1h0.6v6.2h7.4V45.8C439.4,38.8,437.8,33.8,434.6,30.6 M431,52.1v4.6c0,3.8-1.2,7.1-3.5,9.5
	c-2.5,2.5-6,3.8-10.4,3.8c-2.6,0-5.4-1.1-7.1-2.9c-1.5-1.5-2.3-3.4-2.3-5.5c0-8.8,12.1-9.8,17.3-9.8c1,0,1.9,0,2.9,0.1
	c0.9,0,1.9,0.1,2.9,0.1L431,52.1 M176.3,25.9c-5,0-10.1,3.5-12.5,8.6l-0.1,0.2H163v-7.6h-7.8v48.4h8.4v-22
	c0-12.3,5.4-20.3,13.6-20.3c1.8,0,3.3,0.3,4.7,0.8v-7.4C180.2,26.1,178.8,25.9,176.3,25.9"/>
</svg>
